<svg width="200" height="200" viewBox="0 0 200 200" fill="none" xmlns="http://www.w3.org/2000/svg">
<path d="M197.922 153.813C190.797 155.625 186.391 153.891 182.438 147.953C173.563 134.656 163.766 121.969 154.313 109.047C153.094 107.375 151.828 105.734 150.25 103.656C139.063 118.75 127.891 133.125 117.406 148.078C113.656 153.422 109.719 155.75 102.719 153.859L144.781 97.4063L105.625 46.4219C112.359 45.1094 117.016 45.7813 121.141 51.8125C130.25 65.125 140.297 77.7969 150.313 91.2032C160.391 77.8438 170.313 65.1563 179.688 51.9688C183.453 46.625 187.5 44.5938 194.266 46.5625C189.141 53.3594 184.125 60.0469 179.078 66.6875C172.266 75.6407 165.578 84.7032 158.516 93.4688C156 96.5938 156.406 98.625 158.656 101.578C171.719 118.75 184.625 136.094 197.922 153.813ZM2.07813 96.4688C3.20313 90.8282 3.95313 85.0782 5.51563 79.5469C14.8906 46.0625 53.3281 32.1407 79.7344 52.8907C95.2031 65.0625 99.0469 82.2188 98.2813 101.563H11.0938C9.78125 136.266 34.7656 157.219 66.6094 146.531C77.7813 142.781 84.3594 134.031 87.6563 123.094C89.3281 117.609 92.0938 116.75 97.25 118.313C94.6094 132 88.625 143.438 76.125 150.594C57.375 161.313 30.6094 157.844 16.5313 142.953C8.21875 134.203 4.6875 123.313 3.125 111.547C2.89063 109.672 2.40625 107.828 2.03125 105.969C2.0625 102.802 2.07813 99.6355 2.07813 96.4688ZM11.25 94.1407H90.0469C89.5313 69.0469 73.9063 51.2188 52.5469 51.0625C29.1094 50.875 12.2656 68.2813 11.25 94.1407Z" fill="black"/>
</svg>
