<svg width="200" height="200" viewBox="0 0 200 200" fill="none" xmlns="http://www.w3.org/2000/svg">
<path d="M194.902 91.2156L108.783 5.10002C103.827 0.14065 95.7828 0.14065 90.8188 5.10002L72.9375 22.9844L95.6219 45.6688C100.895 43.8891 106.939 45.0828 111.141 49.2844C115.364 53.5125 116.548 59.6078 114.725 64.8985L136.588 86.7625C141.877 84.9391 147.981 86.1172 152.203 90.3485C158.109 96.25 158.109 105.817 152.203 111.722C150.8 113.126 149.133 114.24 147.299 115C145.465 115.76 143.499 116.151 141.513 116.151C139.528 116.151 137.562 115.76 135.728 115C133.894 114.24 132.227 113.126 130.823 111.722C128.715 109.612 127.277 106.925 126.692 104C126.107 101.075 126.4 98.0418 127.534 95.2828L107.147 74.8953L107.144 128.553C108.623 129.282 109.973 130.246 111.142 131.409C117.045 137.311 117.045 146.875 111.142 152.789C105.238 158.691 95.6672 158.691 89.7688 152.789C83.8656 146.877 83.8656 137.313 89.7688 131.409C91.1831 129.993 92.8652 128.872 94.7172 128.113V73.9578C92.8637 73.2003 91.1811 72.0787 89.7688 70.6594C85.2969 66.1906 84.2203 59.6281 86.5141 54.1344L64.15 31.7703L5.10002 90.8172C2.7177 93.2003 1.37939 96.4319 1.37939 99.8016C1.37939 103.171 2.7177 106.403 5.10002 108.786L91.2203 194.902C96.1797 199.861 104.22 199.861 109.188 194.902L194.903 109.186C197.285 106.802 198.623 103.57 198.622 100.2C198.622 96.8307 197.284 93.599 194.902 91.2156Z" fill="#F34F29"/>
</svg>
