<svg width="194" height="194" viewBox="0 0 194 194" fill="none" xmlns="http://www.w3.org/2000/svg">
<circle cx="97" cy="97" r="93" stroke="white" stroke-width="8"/>
<path d="M33.8 118.8L49.9 72.2L43.6 71.6V63.5H66.5L86.9 121.2H87L92.7 121.5V130H66.9V121.9L70.7 121.6C71.8333 121.467 72.6 121.2 73 120.8C73.4 120.4 73.4333 119.667 73.1 118.6L71 112.4H47.6L44.6 121.2L50.6 121.5V130H27.5V121.9L30.8 121.6C32.2 121.467 33.2 120.533 33.8 118.8ZM59.3 74.7L50 103.2H68.6L59.6 74.7H59.3Z" fill="white"/>
<path d="M96.4109 130V121.9L99.7109 121.6C101.644 121.4 102.611 120.467 102.611 118.8V72.3L96.9109 72V63.5H124.211C131.944 63.5 137.878 64.9333 142.011 67.8C146.144 70.6667 148.211 75.3667 148.211 81.9C148.211 86.4333 147.011 90.1667 144.611 93.1C142.278 96.0333 139.478 98.1667 136.211 99.5C138.611 100.367 140.511 102.4 141.911 105.6L149.111 121.3L154.811 121.5V130H130.111V121.9L133.011 121.6C134.544 121.4 135.311 120.8 135.311 119.8C135.311 119.4 135.178 118.933 134.911 118.4L130.211 108.4C129.478 106.733 128.644 105.567 127.711 104.9C126.844 104.167 125.578 103.8 123.911 103.8H114.811V121.2L121.311 121.5V130H96.4109ZM114.811 94.3H123.511C131.711 94.3 135.811 90.6333 135.811 83.3C135.811 79.1 134.711 76.3667 132.511 75.1C130.378 73.8333 126.911 73.2 122.111 73.2H114.811V94.3ZM167.109 131.5C164.775 131.5 162.975 130.867 161.709 129.6C160.442 128.267 159.809 126.567 159.809 124.5C159.809 122.367 160.442 120.633 161.709 119.3C163.042 117.9 164.809 117.2 167.009 117.2C169.275 117.2 171.075 117.867 172.409 119.2C173.742 120.467 174.409 122.167 174.409 124.3C174.409 126.367 173.775 128.1 172.509 129.5C171.242 130.833 169.442 131.5 167.109 131.5Z" fill="#FDBA72"/>
</svg>
