<svg width="200" height="123" viewBox="0 0 200 123" fill="none" xmlns="http://www.w3.org/2000/svg">
<g clip-path="url(#clip0_7_29)">
<path d="M98.8711 122.302C98.1941 122.302 97.5621 122.122 96.975 121.806L90.9707 118.239C90.0676 117.743 90.5191 117.562 90.7902 117.472C92.009 117.066 92.2348 116.975 93.4988 116.253C93.6344 116.162 93.8152 116.208 93.9504 116.298L98.5555 119.052C98.7359 119.142 98.9617 119.142 99.0969 119.052L117.111 108.623C117.291 108.533 117.382 108.352 117.382 108.126V87.314C117.382 87.0878 117.291 86.9077 117.111 86.8171L99.0969 76.4335C98.9164 76.3429 98.6906 76.3429 98.5555 76.4335L80.5418 86.8171C80.3613 86.9073 80.2707 87.1331 80.2707 87.3136V108.126C80.2707 108.307 80.3613 108.532 80.5418 108.623L85.4629 111.467C88.1266 112.821 89.7969 111.241 89.7969 109.661V89.1195C89.7969 88.8488 90.0227 88.5777 90.3387 88.5777H92.641C92.9121 88.5777 93.1828 88.8034 93.1828 89.1195V109.661C93.1828 113.228 91.2414 115.305 87.8555 115.305C86.8172 115.305 86.0047 115.305 83.702 114.176L78.9617 111.467C77.7879 110.79 77.0656 109.526 77.0656 108.171V87.3589C77.0656 86.0046 77.7879 84.7402 78.9617 84.0632L96.975 73.6343C98.1039 73.0023 99.6391 73.0023 100.768 73.6343L118.781 84.0632C119.955 84.7402 120.677 86.0046 120.677 87.3589V108.171C120.677 109.526 119.955 110.79 118.781 111.467L100.768 121.896C100.18 122.167 99.5031 122.302 98.8711 122.302ZM104.424 107.991C96.5238 107.991 94.8984 104.379 94.8984 101.309C94.8984 101.038 95.1242 100.768 95.4402 100.768H97.7879C98.0586 100.768 98.2844 100.948 98.2844 101.219C98.6457 103.612 99.684 104.785 104.47 104.785C108.262 104.785 109.888 103.928 109.888 101.896C109.888 100.722 109.436 99.8648 103.521 99.2777C98.6004 98.7808 95.5305 97.6976 95.5305 93.7698C95.5305 90.1128 98.6008 87.9456 103.747 87.9456C109.526 87.9456 112.37 89.9324 112.732 94.2659C112.732 94.4019 112.686 94.537 112.596 94.6726C112.505 94.7628 112.37 94.8531 112.235 94.8531H109.887C109.661 94.8531 109.436 94.6726 109.391 94.4468C108.849 91.964 107.449 91.1511 103.747 91.1511C99.5938 91.1511 99.0969 92.596 99.0969 93.6792C99.0969 94.9886 99.684 95.3948 105.282 96.1171C110.835 96.8398 113.454 97.878 113.454 101.76C113.409 105.734 110.158 107.991 104.424 107.991Z" fill="#539E43"/>
<path d="M42.9797 40.9031C42.9797 40.0906 42.5281 39.3226 41.8059 38.9164L22.6637 27.9008C22.3473 27.7199 21.9863 27.6297 21.6254 27.5844H21.4445C21.0836 27.5844 20.7223 27.7199 20.4063 27.9008L1.26407 38.9164C0.541412 39.3226 0.0902405 40.0902 0.0902405 40.9031L0.135553 70.5191C0.135553 70.9254 0.361334 71.3316 0.722272 71.5125C1.0836 71.7383 1.53477 71.7383 1.85118 71.5125L13.2281 65.0113C13.9504 64.605 14.402 63.8375 14.402 63.025V49.1648C14.402 48.3523 14.8531 47.5847 15.5758 47.1785L20.4063 44.3793C20.7676 44.1535 21.1738 44.0629 21.5801 44.0629C21.9863 44.0629 22.3926 44.1535 22.709 44.3793L27.5395 47.1785C28.2621 47.5847 28.7133 48.3519 28.7133 49.1648V63.025C28.7133 63.8375 29.1649 64.605 29.8871 65.0113L41.2641 71.5125C41.4398 71.6231 41.6433 71.6818 41.851 71.6818C42.0587 71.6818 42.2621 71.6231 42.4379 71.5125C42.7992 71.3316 43.025 70.9254 43.025 70.5191L42.9797 40.9031ZM134.989 0.135522C134.628 -0.0453369 134.176 -0.0453369 133.86 0.135522C133.499 0.361304 133.273 0.722241 133.273 1.12849V30.4742C133.273 30.7449 133.138 31.0156 132.867 31.1965C132.596 31.3316 132.325 31.3316 132.054 31.1965L127.269 28.4426C126.918 28.2428 126.521 28.1377 126.117 28.1377C125.714 28.1377 125.317 28.2428 124.966 28.4426L105.824 39.5035C105.102 39.9097 104.65 40.6773 104.65 41.4898V63.5664C104.65 64.3789 105.102 65.1468 105.824 65.5531L124.966 76.614C125.317 76.8138 125.714 76.9188 126.117 76.9188C126.521 76.9188 126.918 76.8138 127.269 76.614L146.411 65.5531C147.133 65.1468 147.585 64.3793 147.585 63.5664V8.53279C147.585 7.67498 147.133 6.90779 146.411 6.50115L134.989 0.135522ZM133.228 56.298C133.228 56.5238 133.138 56.7043 132.957 56.7945L126.411 60.5867C126.32 60.6313 126.219 60.6545 126.117 60.6545C126.016 60.6545 125.915 60.6313 125.824 60.5867L119.278 56.7945C119.097 56.7043 119.007 56.4785 119.007 56.298V48.7133C119.007 48.4875 119.097 48.307 119.278 48.2168L125.824 44.4242C125.915 44.3796 126.016 44.3564 126.117 44.3564C126.219 44.3564 126.32 44.3796 126.411 44.4242L132.957 48.2168C133.138 48.3066 133.228 48.5328 133.228 48.7133V56.298ZM198.691 48.5328C199.413 48.1265 199.82 47.359 199.82 46.5461V41.1738C199.82 40.3613 199.368 39.5937 198.691 39.1875L179.684 28.1719C179.333 27.9721 178.936 27.867 178.533 27.867C178.129 27.867 177.732 27.9721 177.381 28.1719L158.239 39.2324C157.516 39.6386 157.065 40.4062 157.065 41.2187V63.2957C157.065 64.1082 157.517 64.8758 158.239 65.282L177.246 76.1172C177.968 76.5234 178.826 76.5234 179.504 76.1172L191.016 69.707C191.377 69.5261 191.603 69.1199 191.603 68.7136C191.603 68.3074 191.377 67.9011 191.016 67.7203L171.783 56.6594C171.422 56.4336 171.196 56.0726 171.196 55.6664V48.759C171.196 48.3527 171.422 47.9465 171.783 47.7656L177.788 44.3344C177.963 44.2237 178.167 44.165 178.374 44.165C178.582 44.165 178.786 44.2237 178.961 44.3344L184.966 47.7656C185.327 47.9914 185.553 48.3523 185.553 48.759V54.1765C185.553 54.5828 185.779 54.989 186.14 55.1695C186.316 55.2802 186.519 55.3389 186.727 55.3389C186.934 55.3389 187.138 55.2802 187.314 55.1695L198.691 48.5328Z" fill="#333333"/>
<path d="M178.239 47.4941C178.306 47.4499 178.385 47.4264 178.465 47.4264C178.545 47.4264 178.624 47.4499 178.691 47.4941L182.348 49.616C182.483 49.7066 182.573 49.8418 182.573 50.0223V54.2664C182.573 54.4469 182.483 54.5824 182.348 54.6726L178.691 56.7945C178.624 56.8387 178.545 56.8623 178.465 56.8623C178.385 56.8623 178.306 56.8387 178.239 56.7945L174.582 54.6726C174.447 54.5824 174.357 54.4469 174.357 54.2664V50.0226C174.357 49.8418 174.446 49.7062 174.582 49.6164L178.239 47.4941Z" fill="#539E43"/>
<path d="M74.9887 28.2621C74.6379 28.0624 74.2412 27.9574 73.8375 27.9574C73.4338 27.9574 73.0371 28.0624 72.6863 28.2621L53.6797 39.232C52.957 39.6383 52.5508 40.4058 52.5508 41.2183V63.2051C52.5508 64.0176 53.0023 64.7851 53.6797 65.1914L72.6863 76.1621C73.0371 76.3618 73.4338 76.4668 73.8375 76.4668C74.2412 76.4668 74.6379 76.3618 74.9887 76.1621L93.9957 65.1914C94.718 64.7851 95.1246 64.0176 95.1246 63.2051V41.2187C95.1246 40.4062 94.6727 39.6387 93.9957 39.2324L74.9887 28.2621Z" fill="url(#paint0_linear_7_29)"/>
</g>
<defs>
<linearGradient id="paint0_linear_7_29" x1="2955.57" y1="876.241" x2="872.262" y2="4149.74" gradientUnits="userSpaceOnUse">
<stop stop-color="#41873F"/>
<stop offset="0.3288" stop-color="#418B3D"/>
<stop offset="0.6352" stop-color="#419637"/>
<stop offset="0.9319" stop-color="#3FA92D"/>
<stop offset="1" stop-color="#3FAE2A"/>
</linearGradient>
<clipPath id="clip0_7_29">
<rect width="200" height="122.656" fill="white"/>
</clipPath>
</defs>
</svg>
