<svg width="200" height="179" viewBox="0 0 200 179" fill="none" xmlns="http://www.w3.org/2000/svg">
<path d="M164.44 57.6749C162.311 56.9446 160.165 56.2681 158.002 55.646C158.366 54.1616 158.7 52.6952 158.997 51.2546C163.87 27.5975 160.684 8.53893 149.802 2.26393C139.369 -3.7517 122.305 2.52096 105.073 17.5186C103.374 18.9993 101.714 20.5227 100.092 22.0874C99.0067 21.0469 97.9021 20.0267 96.7789 19.0272C78.718 2.99127 60.6148 -3.76732 49.7445 2.52565C39.3203 8.56002 36.2336 26.4764 40.6211 48.8967C41.0576 51.1172 41.5505 53.3263 42.0992 55.5217C39.5367 56.2499 37.0641 57.0249 34.6977 57.8499C13.5227 65.2327 0 76.8022 0 88.803C0 101.198 14.5172 113.63 36.5719 121.168C38.3599 121.776 40.1628 122.34 41.9789 122.859C41.3891 125.224 40.8654 127.604 40.4086 129.998C36.2258 152.03 39.4922 169.523 49.8883 175.519C60.6258 181.711 78.6477 175.347 96.1953 160.007C97.6182 158.76 99.0098 157.477 100.369 156.161C102.125 157.855 103.927 159.5 105.775 161.094C122.773 175.72 139.561 181.626 149.947 175.614C160.674 169.404 164.161 150.612 159.634 127.748C159.278 125.957 158.878 124.175 158.435 122.403C159.701 122.028 160.943 121.642 162.154 121.24C185.082 113.644 200 101.363 200 88.803C200 76.7585 186.041 65.1108 164.44 57.6749ZM159.467 113.131C158.373 113.493 157.252 113.842 156.108 114.182C153.577 106.169 150.161 97.6483 145.98 88.8444C149.97 80.2506 153.254 71.8389 155.714 63.878C157.76 64.4702 159.745 65.0944 161.659 65.753C180.167 72.1249 191.456 81.5444 191.456 88.803C191.456 96.5342 179.264 106.571 159.467 113.131ZM151.253 129.408C153.255 139.517 153.54 148.658 152.214 155.804C151.023 162.225 148.628 166.505 145.666 168.22C139.363 171.869 125.884 167.126 111.348 154.617C109.629 153.135 107.952 151.606 106.319 150.031C111.955 143.868 117.587 136.703 123.084 128.745C132.752 127.887 141.887 126.484 150.17 124.569C150.569 126.173 150.93 127.787 151.253 129.408ZM68.1844 167.59C62.0266 169.764 57.1219 169.826 54.157 168.117C47.8484 164.479 45.2258 150.433 48.8031 131.592C49.2284 129.366 49.7153 127.152 50.2633 124.952C58.4555 126.765 67.5234 128.068 77.2148 128.854C82.7492 136.64 88.5437 143.798 94.3836 150.065C93.1425 151.266 91.8721 152.436 90.5734 153.574C82.8133 160.357 75.0375 165.169 68.1844 167.59ZM39.3359 113.083C29.5836 109.75 21.5297 105.418 16.0094 100.69C11.0484 96.4428 8.54453 92.2249 8.54453 88.803C8.54453 81.5202 19.4016 72.2311 37.5102 65.9178C39.7078 65.1522 42.0078 64.4296 44.3945 63.7514C46.8977 71.8921 50.1805 80.4038 54.1422 89.0108C50.1289 97.7452 46.7992 106.393 44.2719 114.63C42.6141 114.155 40.9683 113.639 39.3359 113.083ZM49.0063 47.2553C45.2477 28.0467 47.7438 13.5569 54.0258 9.92018C60.7164 6.04674 75.5117 11.5694 91.1062 25.4163C92.1231 26.3213 93.1236 27.2446 94.107 28.1858C88.2961 34.4256 82.5547 41.5296 77.0695 49.2702C67.6633 50.1421 58.6594 51.542 50.3812 53.4178C49.8712 51.3758 49.4127 49.3205 49.0063 47.2553ZM135.277 68.5585C133.322 65.1811 131.294 61.8462 129.195 58.5561C135.577 59.3631 141.691 60.4342 147.432 61.7436C145.709 67.2686 143.56 73.0444 141.031 78.9663C139.183 75.459 137.264 71.9891 135.277 68.5585ZM100.096 34.292C104.037 38.5616 107.984 43.328 111.866 48.4999C103.991 48.1279 96.1025 48.1264 88.2273 48.4952C92.1133 43.371 96.0938 38.6108 100.096 34.292ZM64.6891 68.6171C62.7268 72.0201 60.8443 75.4684 59.043 78.9592C56.5555 73.0585 54.4266 67.2561 52.6883 61.653C58.3945 60.3764 64.4797 59.3327 70.8203 58.5405C68.698 61.8506 66.6537 65.2109 64.6891 68.6171ZM71.0023 119.673C64.4516 118.942 58.275 117.952 52.5703 116.71C54.3359 111.007 56.5117 105.081 59.0531 99.0538C60.8616 102.547 62.752 105.998 64.7227 109.402C66.7492 112.902 68.8477 116.33 71.0023 119.673ZM100.332 143.915C96.282 139.547 92.243 134.713 88.2984 129.515C92.1281 129.665 96.032 129.741 100 129.741C104.077 129.741 108.106 129.65 112.073 129.473C108.178 134.765 104.246 139.606 100.332 143.915ZM141.112 98.746C143.785 104.84 146.038 110.734 147.827 116.34C142.029 117.663 135.768 118.729 129.171 119.52C131.285 116.169 133.332 112.776 135.311 109.344C137.323 105.855 139.257 102.321 141.112 98.746ZM127.91 105.075C124.881 110.338 121.681 115.501 118.316 120.555C112.22 120.987 106.111 121.202 100 121.198C93.7758 121.198 87.7219 121.005 81.8922 120.626C78.4392 115.583 75.1783 110.411 72.1164 105.122C69.0689 99.8601 66.2231 94.4846 63.5836 89.0069C66.2164 83.5279 69.0543 78.1499 72.0914 72.8842L72.0906 72.885C75.1266 67.618 78.3614 62.4682 81.7883 57.4467C87.7359 56.9967 93.8352 56.7624 99.9992 56.7624C106.191 56.7624 112.299 56.9991 118.245 57.4522C121.638 62.4662 124.852 67.5983 127.882 72.8389C130.929 78.093 133.805 83.4448 136.504 88.8858C133.832 94.3825 130.966 99.7822 127.91 105.075ZM145.535 9.66549C152.232 13.528 154.837 29.1038 150.629 49.5295C150.36 50.8327 150.059 52.16 149.73 53.5061C141.432 51.5905 132.422 50.1663 122.988 49.2811C117.493 41.4553 111.798 34.3405 106.082 28.1811C107.58 26.737 109.114 25.3303 110.682 23.9624C125.448 11.1131 139.248 6.03971 145.535 9.66549ZM100 70.9436C109.863 70.9436 117.859 78.9397 117.859 88.803C117.859 98.6663 109.863 106.662 100 106.662C90.1367 106.662 82.1406 98.6663 82.1406 88.803C82.1406 78.9397 90.1367 70.9436 100 70.9436Z" fill="#00D8FF"/>
</svg>
