<svg width="200" height="200" viewBox="0 0 200 200" fill="none" xmlns="http://www.w3.org/2000/svg">
<path d="M35.4219 73.4375H191.156V188.547H35.4219V73.4375Z" fill="white"/>
<path d="M2.34375 99.8594V197.516H197.656V2.20312H2.34375V99.8594ZM159.734 92.0469C164.412 93.1325 168.664 95.5791 171.953 99.0781C173.764 100.963 175.338 103.062 176.641 105.328C176.641 105.578 168.203 111.281 163.062 114.469C162.875 114.594 162.125 113.781 161.297 112.547C160.358 110.928 159.025 109.572 157.421 108.608C155.817 107.643 153.995 107.101 152.125 107.031C146.203 106.625 142.391 109.734 142.422 114.844C142.373 116.116 142.664 117.378 143.266 118.5C144.562 121.203 146.984 122.812 154.578 126.094C168.562 132.109 174.547 136.078 178.266 141.719C182.422 147.969 183.344 158.062 180.531 165.531C177.406 173.656 169.75 179.172 158.922 181C153.976 181.566 148.979 181.514 144.047 180.844C136.487 179.598 129.523 175.968 124.172 170.484C122.375 168.5 118.875 163.328 119.094 162.953C119.664 162.53 120.265 162.148 120.891 161.812L128.125 157.812L133.734 154.562L134.906 156.297C136.884 159.126 139.401 161.537 142.312 163.391C148.562 166.672 157.094 166.219 161.312 162.422C162.729 161.031 163.613 159.187 163.81 157.211C164.007 155.235 163.504 153.253 162.391 151.609C160.828 149.438 157.703 147.609 148.969 143.797C138.891 139.453 134.547 136.766 130.578 132.484C128.101 129.659 126.271 126.326 125.219 122.719C124.434 118.598 124.318 114.377 124.875 110.219C126.953 100.484 134.25 93.6875 144.906 91.6719C149.841 91.0612 154.84 91.1982 159.734 92.0781V92.0469ZM113.891 100.234V108.234H88.5312V180.469H70.5469V108.219H45.125V100.406C45.0458 97.7121 45.1084 95.0157 45.3125 92.3281C45.4375 92.1875 60.9375 92.1875 79.6875 92.1875H113.797L113.891 100.234Z" fill="#007ACC"/>
</svg>
