<svg width="200" height="191" viewBox="0 0 200 191" fill="none" xmlns="http://www.w3.org/2000/svg">
<g clip-path="url(#clip0_7_55)">
<path d="M138.579 132.604C145.959 131.84 151.559 125.477 151.304 117.841C151.05 110.206 144.687 104.098 137.052 104.098H136.543C128.652 104.352 122.545 110.97 122.799 118.859C123.054 122.677 124.58 125.986 126.871 128.277C118.218 145.33 104.984 157.801 85.132 168.236C71.643 175.363 57.6453 177.908 43.6476 176.127C32.1945 174.599 23.2867 169.509 17.6867 161.109C9.54296 148.638 8.77968 135.148 15.6516 121.659C20.4875 111.987 28.1219 104.861 32.9578 101.298C31.9398 97.9891 30.4125 92.3898 29.6492 88.318C-7.2547 115.042 -3.43673 151.184 7.76171 168.236C16.1601 180.962 33.2125 188.852 52.0461 188.852C57.1359 188.852 62.2258 188.343 67.3164 187.071C99.8937 180.708 124.581 161.364 138.579 132.604ZM183.373 101.044C164.03 78.3914 135.525 65.9203 102.948 65.9203H98.8758C96.5851 61.3391 91.7492 58.2844 86.4047 58.2844H85.8953C78.0062 58.5391 71.8984 65.1562 72.1523 73.0469C72.407 80.682 78.7695 86.7906 86.4047 86.7906H86.9133C92.5125 86.5359 97.3484 82.9727 99.3844 78.1367H103.966C123.309 78.1367 141.633 83.7359 158.177 94.6805C170.902 103.08 180.064 114.024 185.154 127.259C189.48 137.948 189.226 148.384 184.645 157.292C177.519 170.781 165.557 178.163 149.777 178.163C139.597 178.163 129.926 175.108 124.835 172.817C122.036 175.362 116.945 179.434 113.382 181.98C124.327 187.07 135.525 189.87 146.214 189.87C170.647 189.87 188.717 176.38 195.589 162.891C202.97 148.129 202.46 122.677 183.373 101.044ZM54.082 136.93C54.3367 144.566 60.6992 150.673 68.3344 150.673H68.8437C76.7336 150.42 82.8414 143.802 82.5867 135.912C82.3328 128.276 75.9695 122.168 68.3344 122.168H67.8258C67.3164 122.168 66.5523 122.168 66.0445 122.422C55.6094 105.115 51.2828 86.2812 52.8101 65.9195C53.8273 50.6484 58.918 37.4133 67.8258 26.4688C75.2062 17.0516 89.4586 12.4703 99.1305 12.2164C126.108 11.707 137.56 45.3031 138.324 58.793C141.633 59.5562 147.232 61.3383 151.05 62.6109C147.995 21.3797 122.545 0 98.1125 0C75.2062 0 54.082 16.5438 45.6828 40.9773C33.9758 73.5555 41.6109 104.861 55.8633 129.549C54.5914 131.33 53.8273 134.13 54.082 136.93Z" fill="#764ABC"/>
</g>
<defs>
<clipPath id="clip0_7_55">
<rect width="200" height="190.625" fill="white"/>
</clipPath>
</defs>
</svg>
