<svg width="200" height="200" viewBox="0 0 200 200" fill="none" xmlns="http://www.w3.org/2000/svg">
<path d="M109.302 61.4203C106.683 61.5297 102.258 62.2328 102.258 62.5297C102.258 62.6531 105.377 64.2156 105.616 64.2156C105.834 64.2156 109.455 66.0219 110.259 66.5219C111.309 67.1937 112.061 67.8031 111.841 67.8031C111.7 67.8031 107.983 66.3641 106.573 65.7594C105.427 65.2766 100.659 63.8547 98.3391 63.3062C97.0828 63.0125 96.5516 62.9031 94.4156 62.5125C91.2656 61.9375 87.5609 61.9031 85.95 62.4328C83.6422 63.1828 83.1235 64.1047 83.1235 67.5047C83.1235 69.3797 83.2156 70.1719 83.6235 71.8562C83.8016 72.5891 84.3016 74.2 84.5344 74.7437C84.6016 74.9156 84.8203 75.4469 85.0031 75.9156C85.1922 76.3797 85.7609 77.5812 86.2609 78.5641C89.0688 84.1375 93.2734 88.7828 99.2 92.8703C101.069 94.1516 106.147 96.5812 108.184 97.1625C108.703 97.3031 108.875 97.5953 108.453 97.5953C107.984 97.5953 103.688 96.4109 102.808 96.0391C102.473 95.8907 102.133 95.7541 101.789 95.6297C98.7312 94.3969 94.825 91.8578 91.5953 88.9703C88.056 85.8218 85.2267 81.9567 83.2953 77.6312C82.0563 74.8344 81.2141 71.5766 81.0063 68.7375C80.8844 67.1141 80.7563 66.7234 80.3344 66.7422C80.1938 66.7422 78.8578 66.6937 77.3859 66.6141C73.3828 66.4422 67.9141 66.8828 62.5 67.8172C52.1484 69.5797 40.9797 73.6516 29.4859 79.8578C27.5745 80.8927 25.686 81.9696 23.8219 83.0875C23.6031 83.2156 22.9125 83.6359 22.2844 84.0266C21.6609 84.4172 20.9234 84.8516 20.6547 85.0219C20.0609 85.3703 13.4891 89.8312 12.7016 90.4234C12.4078 90.6375 11.5906 91.2469 10.9016 91.7484C7.78126 94.0547 0.989069 99.5969 0.598444 100.159C0.409382 100.441 0.707819 100.581 1.11094 100.441C1.31876 100.359 1.85001 100.25 2.27657 100.191C2.71563 100.122 3.84532 99.8297 4.78438 99.5187C5.73751 99.2187 6.76251 98.9078 7.05626 98.8281C9.38126 98.2844 10.3219 98.0953 11.6813 97.8937C12.2984 97.8156 13.2078 97.675 13.7203 97.5953C20.0922 96.6609 23.1328 96.4297 25.9703 96.6422C32.1344 97.1422 38.0313 98.1937 41.4063 99.3891C43.9328 100.298 49.0719 103.077 51.3313 104.742C52.6375 105.727 56.8359 109.906 57.7641 111.169C58.4828 112.17 59.2828 113.044 59.4719 113.044C59.5344 113.044 59.6125 109.856 59.6313 105.975L59.6735 98.925L67.9266 98.8781C74.4203 98.8469 76.2203 98.8953 76.3313 99.0344C76.4891 99.2375 76.8672 99.9094 78.1063 102.197C79.2844 104.4 79.8641 105.462 80.225 106.097C80.4125 106.445 80.8469 107.252 81.2141 107.892C81.5547 108.533 82.1953 109.717 82.6359 110.528C83.075 111.341 83.4344 112.03 83.4344 112.059C83.4344 112.2 84.0813 113.044 84.1922 113.044C84.2531 113.044 84.4109 112.805 84.5203 112.544C84.6438 112.262 84.9734 111.639 85.2422 111.169C85.5234 110.7 86.0234 109.784 86.3703 109.144C86.7188 108.503 87.1891 107.612 87.4391 107.191C88.1281 105.956 88.8484 104.62 89.4469 103.528C90.0815 102.321 90.7347 101.124 91.4063 99.9375C91.6078 99.5469 91.8594 99.1375 91.9375 99.0344C92.0656 98.8937 93.9141 98.8453 100.598 98.875L109.083 98.9234L109.13 112.7C109.161 123.552 109.205 126.458 109.364 126.458C109.455 126.439 110.083 126.078 110.73 125.627C111.639 124.992 112.03 124.602 112.452 123.881C113.409 122.245 116.125 119.67 117.944 118.669C120.154 117.447 122.531 116.555 125 116.022C127.508 115.491 128.247 115.412 133.942 115.209C144.336 114.85 145.873 114.787 145.953 114.709C146.002 114.667 145.863 114.258 145.655 113.787C145.436 113.336 145.061 112.494 144.794 111.933C143.805 109.797 143.805 109.081 144.842 108.033C145.545 107.298 147.363 106.658 150.488 106.036C151.002 105.927 151.648 105.786 151.909 105.695C152.18 105.616 152.508 105.555 152.648 105.555C153.045 105.555 156.164 104.791 156.823 104.541C157.277 104.353 159.723 103.822 162.641 103.259C163.909 103.009 167.206 102.356 169.934 101.806C171.661 101.466 173.463 101.105 173.931 101.012C174.402 100.922 175.08 100.781 175.422 100.72C175.769 100.642 176.22 100.544 176.441 100.512C176.659 100.47 177.759 100.25 178.875 100.019C179.712 99.8352 180.552 99.6722 181.397 99.5297C182.184 99.4562 188.098 98.0344 189.459 97.5953C191.627 96.8922 192.267 96.6125 193.634 95.6969C195.105 94.6969 195.514 94.1531 196.972 91.2469C198.591 88.0187 198.822 87.475 199.28 86.1141C199.983 83.9484 199.939 83.1234 199.042 82.2141C198.413 81.5922 197.064 80.9516 196.081 80.8109C195.344 80.7187 195.245 80.7484 194.886 81.1391C194.666 81.3734 194.477 81.6531 194.477 81.75C194.477 81.8906 194.227 82.575 193.523 84.2594C193.456 84.4312 193.317 84.8516 193.206 85.1922C193.116 85.5406 192.925 86.0234 192.816 86.2859C192.614 86.7234 192.597 86.6453 192.675 85.4312C192.755 84.2281 192.956 83.2156 193.414 81.6828C193.494 81.3906 193.603 80.8906 193.647 80.5781L193.725 80.0156L192.095 79.3641C190.4 78.6609 188.939 78.0516 188.098 77.6734C187.811 77.5703 187.109 77.2891 186.53 77.0687C185.931 76.85 185.211 76.5687 184.913 76.4281C184.369 76.1874 183.819 75.9598 183.264 75.7453C182.214 75.3359 178.545 74.0906 175.42 73.1078C173.334 72.4681 171.245 71.8378 169.153 71.2172C168.417 71.0299 167.684 70.8278 166.956 70.6109C166.706 70.5437 166.089 70.3734 165.619 70.2516C162.859 69.4891 162.141 69.2984 161.15 69.0172C160.604 68.86 160.055 68.7141 159.503 68.5797C159.205 68.5062 158.394 68.3172 157.703 68.1453C156.494 67.8469 151.428 66.6812 148.681 66.0516L146.722 65.6C146.375 65.5219 145.753 65.3984 145.312 65.3187C144.886 65.2406 143.994 65.0687 143.347 64.9281C142.706 64.8078 141.327 64.5375 140.289 64.3672C139.258 64.1844 138.019 63.9656 137.548 63.8859C133.216 63.1047 132.923 63.0609 125.158 62.2016C120.373 61.6578 113.939 61.2 112.372 61.2797C112.122 61.2797 110.731 61.3406 109.302 61.4203ZM91.1688 69.1094C95.3125 70.4531 99.3406 72.2781 102.1 74.0594C104.297 75.4766 107.025 77.7406 107.764 78.7531L108.075 79.175L107.483 78.9422C107.155 78.8016 106.464 78.5047 105.945 78.2531C103.186 76.9719 102.888 76.8672 102.888 77.1484C102.888 77.2219 103.528 78.2531 104.297 79.4062C105.084 80.5781 105.706 81.6094 105.706 81.7031C105.706 81.7812 105.414 81.6531 105.047 81.4031C103.638 80.4375 100.328 79.0469 100.141 79.3281C100.092 79.4062 101.109 80.7 102.417 82.2141C103.698 83.7281 104.767 85.0219 104.767 85.1203C104.767 85.3516 104.517 85.3203 103.327 84.8812C102.1 84.4484 101.789 84.4 101.789 84.6984C101.789 84.9 104.438 88.4703 105.488 89.7031C105.786 90.0453 106.023 90.375 106.023 90.4531C106.023 90.8266 102.35 88.4406 99.75 86.3828C96.0313 83.4172 92.4375 79.4375 90.5469 76.1484C88.9891 73.4609 88.4578 72.0156 88.4578 70.4219C88.4578 69.4891 88.5016 69.3 88.8484 68.9687C89.0516 68.7562 89.3063 68.5781 89.3984 68.5781C89.4891 68.5781 90.2766 68.8172 91.1688 69.1094ZM140.686 74.6641C142.188 74.9328 144.244 75.2875 145.233 75.4641C146.222 75.6359 147.43 75.8359 147.9 75.9156C148.37 76.0078 149.041 76.1297 149.389 76.2078C149.733 76.2875 150.409 76.4281 150.88 76.5375C152.43 76.8812 152.808 76.9594 155.347 77.5516C158.075 78.1922 158.673 78.3141 159.503 78.4844C160.211 78.625 160.913 78.8937 160.913 79.0156C160.913 79.0656 160.4 79.3641 159.772 79.6875C158.484 80.3281 158.216 80.3766 152.917 80.5781C149.311 80.7312 147.381 80.6875 145.623 80.4062C142.077 79.8594 140.247 78.8641 138.819 76.7094C138.319 75.9766 137.989 75.7562 136.841 75.4641C136.419 75.3359 135.773 75.1641 135.431 75.0547C135.083 74.9453 134.491 74.7734 134.113 74.6641C132.983 74.3719 133.625 74.2 135.902 74.2C137.469 74.2 138.569 74.3047 140.686 74.6641ZM159.552 96.4609C159.423 96.4915 159.289 96.4915 159.161 96.4609C159.052 96.4109 159.13 96.3812 159.35 96.3812C159.564 96.3812 159.644 96.4125 159.553 96.4594L159.552 96.4609ZM158.875 96.6437C158.875 96.7219 158.692 96.8312 158.453 96.8812C157.966 97.0031 156.055 97.5531 155.427 97.7531C155.206 97.8328 154.498 98.0531 153.858 98.2375C152.241 98.7062 148.322 99.9812 147.272 100.391C145.294 101.141 140.65 103.602 139.997 104.261C139.02 105.212 138.72 106.237 138.867 108.203C138.909 109.033 139.02 110.078 139.117 110.528C139.306 111.512 139.195 111.78 138.819 111.292C138.441 110.809 137.641 109.064 137.408 108.203C137.28 107.819 137.141 107.3 137.061 107.05C136.78 106.164 136.889 105.114 137.33 104.48C137.922 103.57 140.058 102.123 142.566 100.922C143.756 100.342 147.222 99.1562 150.409 98.2234C151.05 98.0359 151.758 97.8156 151.978 97.7547C154.236 96.9906 158.875 96.2578 158.875 96.6437ZM109.272 97.6922C109.222 97.7359 109.083 97.7547 108.972 97.7047C108.844 97.6625 108.894 97.6141 109.064 97.6141C109.241 97.5953 109.333 97.6453 109.272 97.6922Z" fill="#850000"/>
<path d="M76.3797 127.862V138.781H84.1922C90.0578 138.781 92.0469 138.734 92.1875 138.594C92.425 138.359 92.475 116.944 92.2359 116.944C92.1578 116.944 92.0485 117.066 91.9985 117.206C91.936 117.347 90.2281 120.014 88.1891 123.133C84.961 128.064 84.0641 129.266 84.0641 128.656C84.0641 128.547 78.7172 120.203 77.35 118.187C77.1668 117.927 77.0053 117.651 76.8672 117.364C76.7391 117.127 76.586 116.942 76.5078 116.942C76.4406 116.942 76.3797 121.856 76.3797 127.862Z" fill="#850000"/>
</svg>
